<svg id="delete" version="1.1" xmlns="http://www.w3.org/2000/svg" viewBox="0 0 32 32"><path fill="#4c39e3" d="M12.392 6c0-.368.298-.667.667-.667h7.216c.368 0 .667.298.667.667v2h-8.549V6zm-1.333 2H5.373a.667.667 0 1 0 0 1.334h22.588a.667.667 0 1 0 0-1.334h-5.686V6a2 2 0 0 0-2-2h-7.216a2 2 0 0 0-2 2v2z"/><path fill="none" stroke="#4c39e3" stroke-linecap="round" stroke-width="1.333" d="M8 9.333v18c0 .736.597 1.333 1.333 1.333H24c.736 0 1.333-.597 1.333-1.333V8.666M12 13.333v13.333M21.333 13.333v13.333M16.667 13.333v13.333"/></svg>