<svg id="edit" version="1.1" xmlns="http://www.w3.org/2000/svg" viewBox="0 0 32 32"><path fill="none" stroke="#4c39e3" stroke-linecap="round" stroke-width="1.333" d="M20.916 4.937 7.455 18.398a1.071 1.071 0 0 0-.245.38l-2.08 5.546a.133.133 0 0 0 .177.169l4.811-2.062c.132-.057.252-.14.351-.244L23.942 8.072m-3.026-3.135 1.799-1.799c.26-.26.682-.26.943 0l2.096 2.096c.256.256.261.67.011.932l-1.821 1.908m-3.028-3.137 3.027 3.136M4.685 25.037c-1.257 5.327 7.349 1.813 12.923-.625 1.03-.451 1.692.625 1.115 1.59-2.875 4.807 9.51 1.39 9.51 1.39"/></svg>