<svg id="mail" viewBox="0 0 21 16" fill="none" xmlns="http://www.w3.org/2000/svg"><g id="Gmail" fill="#fff"><path id="Vector" d="M4.508 7.432V1.23l5.997 4.498 5.997-4.498v6.202l-5.997 4.498-5.997-4.498Z"/><path id="Vector_2" d="M4.508 7.432.01 4.059v10.51c0 .793.643 1.43 1.431 1.43h3.067V7.433Z"/><path id="Vector_3" d="M4.508 1.23 3.444.434C2.03-.628.01.38.01 2.15v1.909l4.498 3.373V1.23Z"/><path id="Vector_4" d="M16.502 7.432V16h3.067A1.43 1.43 0 0 0 21 14.569V4.059l-4.498 3.373Z"/><path id="Vector_5" d="m17.566.434-1.064.796v6.202L21 4.06v-1.91C21 .382 18.98-.627 17.566.435Z"/></g></svg>