<svg width="211" height="30" id="main-logo" fill="none" xmlns="http://www.w3.org/2000/svg"><g id="GLIGLE LOGO TEXT" fill="#fff"><g id="G"><path d="M0 0v30l6-5.998V5.997L0 0Z"/><path d="M0 30h30.001l-6-5.998H6L0 30ZM0 0l6 5.998h24.001V0H0Z"/><path d="M24.001 18v6.002l6 5.998V12l-6 6ZM12.001 12v6h12l6-6h-18Z"/></g><path id="L" d="M36.003 0v30h30v-6h-24V0h-6Z"/><g id="I"><path d="M84.005 0v30h6V0h-6Z"/><path d="M72.006 24.001V30H102.006V24H72.005ZM72.005 0v5.998H102.007V0H72.005Z"/></g><g id="G_2"><path d="M108.009 0v30l6-5.998V5.997l-6-5.998Z"/><path d="M108.009 30h30.001l-6-5.998h-18.001l-6 5.998ZM108.009 0l6 5.998h24.001V0h-30.001Z"/><path d="M132.01 18v6.002l6 5.998V12l-6 6ZM120.01 12v6h12l6-6h-18Z"/></g><path id="L_2" d="M144.012 0v30h30v-6h-24V0h-6Z"/><path id="E" d="M180.014 0v30h30v-6h-24v-6h18v-6h-18V6h24V0h-30Z"/></g></svg>