<svg id="mono" viewBox="0 0 85 18" fill="none" xmlns="http://www.w3.org/2000/svg"><path id="Vector" fill-rule="evenodd" clip-rule="evenodd" d="M24.867 17.098V5.396C24.867 2.076 23.054.5 20.01.5c-2.531 0-4.72 1.475-5.678 2.95C13.716 1.607 12.177.5 9.749.5c-2.532 0-4.72 1.542-5.405 2.515V.903H0v16.195h4.344V6.2c.65-.905 1.916-1.911 3.42-1.911 1.78 0 2.463 1.073 2.463 2.582v10.227h4.379V6.167c.615-.872 1.88-1.878 3.42-1.878 1.779 0 2.463 1.073 2.463 2.582v10.227h4.378Zm11.938.402c-5.439 0-8.723-3.89-8.723-8.517C28.082 4.39 31.366.5 36.805.5c5.473 0 8.756 3.89 8.756 8.483 0 4.627-3.283 8.517-8.756 8.517Zm0-3.789c2.702 0 4.241-2.18 4.241-4.728 0-2.514-1.539-4.694-4.241-4.694-2.703 0-4.208 2.18-4.208 4.694 0 2.549 1.506 4.728 4.208 4.728Zm27.467 3.387V5.664c0-3.152-1.745-5.164-5.37-5.164-2.703 0-4.72 1.274-5.781 2.515V.903h-4.345v16.195h4.345V6.2c.718-.972 2.052-1.911 3.762-1.911 1.847 0 3.045.771 3.045 3.018v9.79h4.344Zm11.971.402c-5.438 0-8.722-3.89-8.722-8.517C67.521 4.39 70.805.5 76.243.5 81.716.5 85 4.39 85 8.983c0 4.627-3.284 8.517-8.757 8.517Zm0-3.789c2.703 0 4.242-2.18 4.242-4.728 0-2.514-1.54-4.694-4.242-4.694s-4.207 2.18-4.207 4.694c0 2.549 1.505 4.728 4.207 4.728Z" fill="#fff"/></svg>