<svg id="rate" viewBox="0 0 100 100" fill="none" xmlns="http://www.w3.org/2000/svg"><path d="M100 50A50 50 0 1 1 77.279 8.097L66.724 24.31A30.653 30.653 0 1 0 80.654 50H100Z" fill="#58D513"/><path d="M100 50A50 50 0 0 0 77.327 8.128L66.753 24.33A30.653 30.653 0 0 1 80.653 50H100Z" fill="#FEC204"/><path d="M40.945 56.179c-.985 0-1.86-.16-2.627-.48-.763-.323-1.362-.764-1.797-1.323a3.008 3.008 0 0 1-.652-1.898 3.1 3.1 0 0 1 .371-1.502c.252-.46.592-.842 1.023-1.144.43-.307.912-.503 1.444-.588v-.09a2.838 2.838 0 0 1-1.7-1.016 2.923 2.923 0 0 1-.652-1.886c0-.677.198-1.28.595-1.809.396-.532.94-.95 1.63-1.253.694-.306 1.483-.46 2.365-.46.882 0 1.668.154 2.358.46.695.307 1.24.727 1.637 1.26a2.96 2.96 0 0 1 .6 1.802 2.918 2.918 0 0 1-.664 1.886 2.857 2.857 0 0 1-1.688 1.016v.09c.524.085 1 .28 1.426.588.43.302.77.684 1.022 1.144.256.456.386.956.39 1.502a3.04 3.04 0 0 1-.658 1.898c-.435.559-1.036 1-1.803 1.324-.762.32-1.636.479-2.62.479Zm0-2.033c.438 0 .822-.078 1.15-.236.328-.162.584-.384.767-.665.188-.285.282-.614.282-.984 0-.38-.096-.714-.288-1.004a1.977 1.977 0 0 0-.78-.69 2.419 2.419 0 0 0-1.131-.256c-.422 0-.8.085-1.132.256a1.968 1.968 0 0 0-.786.69c-.188.29-.281.624-.281 1.004 0 .37.091.698.275.984.183.281.44.503.773.665.332.158.716.236 1.15.236Zm0-5.848c.366 0 .692-.075.978-.224.285-.15.509-.356.67-.62.163-.264.244-.57.244-.914a1.637 1.637 0 0 0-.908-1.502 2.072 2.072 0 0 0-.984-.224c-.371 0-.7.075-.985.224-.285.145-.509.347-.67.607a1.67 1.67 0 0 0-.237.895c0 .345.08.65.242.914.162.264.386.47.672.62.285.149.611.224.978.224Zm11.798 7.881c-.904 0-1.71-.166-2.416-.499-.704-.332-1.262-.79-1.675-1.374a3.53 3.53 0 0 1-.646-2.007h2.685c.03.507.243.918.64 1.234.395.315.866.473 1.412.473a2.26 2.26 0 0 0 1.15-.288c.337-.196.599-.467.786-.812.192-.35.288-.75.288-1.201 0-.46-.098-.865-.294-1.215a2.077 2.077 0 0 0-.799-.818 2.352 2.352 0 0 0-1.17-.3c-.383 0-.756.078-1.118.236a2.02 2.02 0 0 0-.838.646l-2.46-.441.62-6.904h8.002v2.263h-5.72l-.34 3.279h.077c.23-.324.578-.592 1.042-.805.465-.214.985-.32 1.56-.32.788 0 1.491.185 2.11.556.617.37 1.105.88 1.463 1.528.358.643.535 1.385.53 2.224.005.882-.2 1.666-.613 2.352a4.326 4.326 0 0 1-1.72 1.611c-.732.388-1.585.582-2.556.582Zm13.985-2.634v-.69c0-.524.111-1.006.333-1.444.226-.444.552-.797.978-1.062.43-.268.954-.402 1.572-.402.627 0 1.153.132 1.58.396.43.264.753.618.97 1.061.222.439.333.923.333 1.451v.69a3.2 3.2 0 0 1-.332 1.451c-.222.44-.548.79-.978 1.055-.43.269-.955.403-1.573.403-.626 0-1.152-.134-1.579-.403a2.6 2.6 0 0 1-.971-1.055 3.198 3.198 0 0 1-.333-1.45Zm1.86-.69v.69c0 .303.073.588.218.857.15.268.418.403.805.403.388 0 .652-.132.793-.397.145-.264.217-.552.217-.863v-.69c0-.311-.068-.6-.204-.87-.137-.268-.405-.402-.806-.402-.383 0-.65.134-.799.403-.149.268-.223.558-.223.87Zm-8.577-6.801v-.69c0-.529.112-1.012.338-1.451.226-.444.552-.797.978-1.061.43-.265.95-.397 1.56-.397.63 0 1.159.132 1.585.397.426.264.75.617.972 1.06.221.44.332.923.332 1.452v.69c0 .528-.113 1.012-.339 1.451-.221.439-.547.79-.978 1.055-.426.26-.95.39-1.572.39-.622 0-1.148-.133-1.579-.397a2.655 2.655 0 0 1-.971-1.054 3.21 3.21 0 0 1-.327-1.445Zm1.872-.69v.69c0 .311.073.599.218.863.149.264.41.396.786.396.392 0 .658-.132.799-.396.145-.264.217-.552.217-.863v-.69c0-.311-.068-.601-.204-.87-.137-.268-.407-.402-.812-.402-.38 0-.641.136-.786.409-.145.272-.218.56-.218.863ZM60.854 56l9-13.09h1.675l-9 13.09h-1.675Z" fill="#313B5C"/></svg>