<svg id="type" viewBox="0 0 24 24" fill="none" xmlns="http://www.w3.org/2000/svg"><path stroke="#4C39E3" stroke-width="1.5" d="M4.928 5.964h9.428M4.928 9.107h9.428M4.929 12.25h6.285M4.928 15.393h6.285"/><mask id="path-5-inside-1_785_14182" fill="#fff"><rect x="1" y="2" width="16.5" height="20.429" rx=".5"/></mask><rect x="1" y="2" width="16.5" height="20.429" rx=".5" stroke="#4C39E3" stroke-width="3" mask="url('#path-5-inside-1_785_14182')"/><path d="m20.25 5.536-6.949 6.949a.8.8 0 0 0-.183.285l-1.036 2.761a.1.1 0 0 0 .133.127l2.385-1.022a.802.802 0 0 0 .263-.183l6.958-7.29M20.25 5.537l.825-.825a.5.5 0 0 1 .707 0l.873.872a.5.5 0 0 1 .008.7l-.842.88M20.25 5.537l1.571 1.628" stroke="#4C39E3" stroke-width="1.5" stroke-linecap="round"/></svg>